<svg id="visual" viewBox="0 0 900 600" width="900" height="600" xmlns="http://www.w3.org/2000/svg" xmlns:xlink="http://www.w3.org/1999/xlink" version="1.1"><rect x="0" y="0" width="900" height="600" fill="#1d1330"></rect><path d="M0 340L129 400L257 400L386 344L514 363L643 402L771 354L900 341L900 601L771 601L643 601L514 601L386 601L257 601L129 601L0 601Z" fill="#603636"></path><path d="M0 406L129 424L257 378L386 402L514 365L643 410L771 398L900 397L900 601L771 601L643 601L514 601L386 601L257 601L129 601L0 601Z" fill="#5a2f34"></path><path d="M0 418L129 430L257 418L386 410L514 451L643 438L771 417L900 412L900 601L771 601L643 601L514 601L386 601L257 601L129 601L0 601Z" fill="#532931"></path><path d="M0 444L129 420L257 444L386 412L514 452L643 439L771 429L900 418L900 601L771 601L643 601L514 601L386 601L257 601L129 601L0 601Z" fill="#4c232f"></path><path d="M0 459L129 468L257 480L386 487L514 443L643 471L771 454L900 482L900 601L771 601L643 601L514 601L386 601L257 601L129 601L0 601Z" fill="#451d2d"></path><path d="M0 487L129 476L257 462L386 477L514 464L643 461L771 498L900 489L900 601L771 601L643 601L514 601L386 601L257 601L129 601L0 601Z" fill="#3d172b"></path><path d="M0 505L129 493L257 502L386 499L514 520L643 497L771 511L900 506L900 601L771 601L643 601L514 601L386 601L257 601L129 601L0 601Z" fill="#351229"></path><path d="M0 510L129 523L257 533L386 547L514 524L643 546L771 537L900 514L900 601L771 601L643 601L514 601L386 601L257 601L129 601L0 601Z" fill="#2d0d26"></path><path d="M0 555L129 558L257 561L386 559L514 551L643 551L771 564L900 559L900 601L771 601L643 601L514 601L386 601L257 601L129 601L0 601Z" fill="#240824"></path><path d="M0 572L129 563L257 566L386 561L514 574L643 559L771 578L900 582L900 601L771 601L643 601L514 601L386 601L257 601L129 601L0 601Z" fill="#1d0021"></path></svg>